PathFileType	4	(X/Y/Z)	SUBJ82_4_walk_RCNL2025.trc
DataRate	CameraRate	NumFrames	NumMarkers	Units	OrigDataRate	OrigDataStartFrame	OrigNumFrames
100	100	6	25	mm	100	61	242
Frame#	Time	R_Shoulder			L_Shoulder			C7			J_Notch			R_Elbow			L_Elbow			R_Wrist			L_Wrist			R_Asis			L_Asis			Sacral			Thoracic			Sternum			R_Thigh_Lateral			R_Knee_Lateral			R_Shank_Lateral			R_Ankle_Lateral			R_Heel			R_Toe			L_Thigh_Lateral			L_Knee_Lateral			L_Shank_Lateral			L_Ankle_Lateral			L_Heel			L_Toe		
		X1	Y1	Z1	X2	Y2	Z2	X3	Y3	Z3	X4	Y4	Z4	X5	Y5	Z5	X6	Y6	Z6	X7	Y7	Z7	X8	Y8	Z8	X9	Y9	Z9	X10	Y10	Z10	X11	Y11	Z11	X12	Y12	Z12	X13	Y13	Z13	X14	Y14	Z14	X15	Y15	Z15	X16	Y16	Z16	X17	Y17	Z17	X18	Y18	Z18	X19	Y19	Z19	X20	Y20	Z20	X21	Y21	Z21	X22	Y22	Z22	X23	Y23	Z23	X24	Y24	Z24	X25	Y25	Z25
61	0.60000000	-402.067657	1403.228394	-87.994675	-360.813873	1424.587280	-495.228210	-428.882050	1508.645630	-290.984558	-314.805969	1385.650879	-287.107697	-535.920166	1076.231934	-46.453426	-369.940186	1079.077515	-591.314087	-499.325043	817.838867	-62.680464	-182.458870	896.226959	-571.177887	-330.055450	975.483826	-156.953384	-330.550812	991.881897	-425.735352	-508.601471	994.391357	-289.792175	-531.324768	1272.345215	-308.514008	-292.868774	1209.959717	-290.036652	-270.011627	559.752808	-105.828575	-239.670273	483.345215	-153.170242	-207.850296	259.994781	-97.572006	-133.685669	87.075615	-183.785599	-155.925751	46.478867	-235.225220	7.860796	99.487762	-181.337158	-504.216492	563.304810	-462.880310	-517.135620	488.776154	-416.720276	-571.083923	260.180847	-447.477356	-622.861084	78.430130	-373.866699	-665.759949	63.511082	-320.803406	-485.385071	45.870804	-351.363403
62	0.61000000	-388.382111	1399.230347	-87.035225	-345.783020	1421.164429	-494.108917	-414.203217	1505.053833	-289.915833	-300.304169	1381.672607	-286.020874	-522.923340	1072.227295	-46.862473	-352.483521	1076.079956	-591.293335	-486.470505	813.802368	-63.536705	-161.479637	897.227966	-570.225922	-315.092194	971.649780	-156.720779	-316.352051	988.710938	-425.494476	-494.064850	990.639221	-288.695862	-517.221130	1269.203491	-307.754486	-278.559723	1206.028687	-289.324738	-258.226166	554.239197	-106.734947	-223.717377	479.801941	-153.728455	-180.102951	259.079254	-95.519707	-98.523689	88.284615	-180.727997	-119.667137	46.159714	-231.496704	43.012981	106.529495	-181.040283	-494.649414	561.634033	-463.044708	-508.466034	487.399139	-416.764435	-566.356750	259.634888	-447.188568	-622.232483	79.129738	-373.642273	-665.411804	64.820099	-320.664062	-485.313232	45.852703	-351.179230
63	0.62000000	-374.531250	1395.283203	-85.989548	-330.662048	1417.792480	-492.904968	-399.431305	1501.495361	-288.743683	-285.697998	1377.741211	-284.835052	-509.638916	1068.212280	-47.153709	-335.232300	1073.122681	-591.077881	-473.150803	809.790283	-64.232479	-141.074841	898.006042	-569.199890	-299.985748	967.936035	-156.561264	-302.144196	985.565247	-425.320618	-479.407410	986.913147	-287.451813	-503.025726	1266.087769	-306.940216	-264.157349	1202.176392	-288.550476	-245.911407	549.037903	-107.361679	-207.517105	476.535187	-154.033401	-153.473862	258.648621	-93.391754	-65.899994	89.786896	-177.952835	-86.085793	46.246784	-228.100876	75.425522	113.177719	-180.983582	-484.819244	559.946106	-463.184692	-499.451447	486.002838	-416.785400	-561.550781	259.233612	-446.858185	-621.537903	80.094612	-373.387024	-664.981812	66.473022	-320.472412	-485.203888	45.861458	-350.989471
64	0.63000000	-360.467560	1391.421753	-84.857880	-315.443634	1414.543945	-491.616486	-384.546509	1498.031860	-287.462036	-270.970856	1373.919678	-283.552887	-496.028015	1064.238770	-47.296917	-318.231476	1070.272583	-590.674561	-459.347092	805.852692	-64.752586	-121.294662	898.567047	-568.109680	-284.743073	964.419189	-156.472809	-287.879852	982.480286	-425.226257	-464.612976	983.274475	-286.092255	-488.705353	1263.041870	-306.088318	-249.641068	1198.457153	-287.725830	-232.656708	544.423645	-107.674568	-191.003799	473.617035	-154.090652	-128.324738	258.432373	-91.375786	-36.128475	91.216232	-175.606735	-55.501038	46.441658	-225.227829	104.874741	118.915230	-181.102890	-474.761108	558.324707	-463.279816	-490.117737	484.649902	-416.786804	-556.687988	259.063629	-446.509308	-620.759216	81.382889	-373.128845	-664.447205	68.527618	-320.258270	-485.037872	45.895981	-350.808838
65	0.64000000	-346.153015	1387.677490	-83.641991	-300.121735	1411.484497	-490.244537	-369.526428	1494.721802	-286.063568	-256.104828	1370.265381	-282.179626	-482.048126	1060.353760	-47.258308	-301.523163	1067.588989	-590.094238	-445.046295	802.034180	-65.082533	-102.186157	898.918091	-566.964172	-269.367950	961.164185	-156.431931	-273.498932	979.487000	-425.204681	-449.661652	979.785217	-284.657196	-474.224182	1260.106689	-305.211182	-234.986420	1194.921387	-286.860107	-218.123245	540.628662	-107.657097	-174.124863	471.094879	-153.919617	-104.964249	258.148804	-89.647774	-9.455666	92.234306	-173.795853	-28.187323	46.476727	-223.008163	131.203003	123.266335	-181.321930	-464.495758	556.846558	-463.316559	-480.472382	483.397217	-416.785309	-551.749146	259.194763	-446.182526	-619.870239	83.047188	-372.915161	-663.784668	71.039017	-320.075073	-484.797150	45.952564	-350.655060
66	0.65000000	-331.563049	1384.081177	-82.343697	-284.691986	1408.672119	-488.789337	-354.350037	1491.616577	-284.540466	-241.079971	1366.829468	-280.725098	-467.652985	1056.600464	-47.003010	-285.141479	1065.121826	-589.347351	-430.239716	798.372955	-65.210335	-83.791977	899.065491	-565.773956	-253.855988	958.224365	-156.395920	-258.935730	976.610229	-425.230530	-434.528046	976.506531	-283.191010	-459.545990	1257.318359	-304.316681	-220.165390	1191.614258	-285.955811	-202.114502	537.802368	-107.316574	-156.847412	468.992767	-153.549744	-83.588181	257.561646	-88.337830	13.975636	92.576157	-172.577835	-4.338657	46.146156	-221.497757	154.340286	125.856659	-181.581207	-454.020081	555.572083	-463.290771	-470.504059	482.288910	-416.806580	-546.677612	259.673889	-445.932953	-618.834229	85.129181	-372.803497	-662.969177	74.061943	-319.991394	-484.470062	46.024811	-350.543457
